<svg width="125" height="32" viewBox="0 0 125 32" fill="none" xmlns="http://www.w3.org/2000/svg">
<path d="M42.8258 10.436L38.5778 18.626V23H36.0578V18.626L31.7918 10.436H34.6358L37.3358 16.178L40.0178 10.436H42.8258ZM86.2645 16.556C86.9725 16.688 87.5545 17.042 88.0105 17.618C88.4665 18.194 88.6945 18.854 88.6945 19.598C88.6945 20.27 88.5265 20.864 88.1905 21.38C87.8665 21.884 87.3925 22.28 86.7685 22.568C86.1445 22.856 85.4065 23 84.5545 23H79.1365V10.436H84.3205C85.1725 10.436 85.9045 10.574 86.5165 10.85C87.1405 11.126 87.6085 11.51 87.9205 12.002C88.2445 12.494 88.4065 13.052 88.4065 13.676C88.4065 14.408 88.2085 15.02 87.8125 15.512C87.4285 16.004 86.9125 16.352 86.2645 16.556ZM81.6565 15.62H83.9605C84.5605 15.62 85.0225 15.488 85.3465 15.224C85.6705 14.948 85.8325 14.558 85.8325 14.054C85.8325 13.55 85.6705 13.16 85.3465 12.884C85.0225 12.608 84.5605 12.47 83.9605 12.47H81.6565V15.62ZM84.1945 20.948C84.8065 20.948 85.2805 20.804 85.6165 20.516C85.9645 20.228 86.1385 19.82 86.1385 19.292C86.1385 18.752 85.9585 18.332 85.5985 18.032C85.2385 17.72 84.7525 17.564 84.1405 17.564H81.6565V20.948H84.1945ZM90.0549 17.978C90.0549 16.97 90.2529 16.076 90.6489 15.296C91.0569 14.516 91.6029 13.916 92.2869 13.496C92.9829 13.076 93.7569 12.866 94.6089 12.866C95.3529 12.866 96.0009 13.016 96.5529 13.316C97.1169 13.616 97.5669 13.994 97.9029 14.45V13.028H100.441V23H97.9029V21.542C97.5789 22.01 97.1289 22.4 96.5529 22.712C95.9889 23.012 95.3349 23.162 94.5909 23.162C93.7509 23.162 92.9829 22.946 92.2869 22.514C91.6029 22.082 91.0569 21.476 90.6489 20.696C90.2529 19.904 90.0549 18.998 90.0549 17.978ZM97.9029 18.014C97.9029 17.402 97.7829 16.88 97.5429 16.448C97.3029 16.004 96.9789 15.668 96.5709 15.44C96.1629 15.2 95.7249 15.08 95.2569 15.08C94.7889 15.08 94.3569 15.194 93.9609 15.422C93.5649 15.65 93.2409 15.986 92.9889 16.43C92.7489 16.862 92.6289 17.378 92.6289 17.978C92.6289 18.578 92.7489 19.106 92.9889 19.562C93.2409 20.006 93.5649 20.348 93.9609 20.588C94.3689 20.828 94.8009 20.948 95.2569 20.948C95.7249 20.948 96.1629 20.834 96.5709 20.606C96.9789 20.366 97.3029 20.03 97.5429 19.598C97.7829 19.154 97.9029 18.626 97.9029 18.014ZM108.428 12.884C109.616 12.884 110.576 13.262 111.308 14.018C112.04 14.762 112.406 15.806 112.406 17.15V23H109.886V17.492C109.886 16.7 109.688 16.094 109.292 15.674C108.896 15.242 108.356 15.026 107.672 15.026C106.976 15.026 106.424 15.242 106.016 15.674C105.62 16.094 105.422 16.7 105.422 17.492V23H102.902V13.028H105.422V14.27C105.758 13.838 106.184 13.502 106.7 13.262C107.228 13.01 107.804 12.884 108.428 12.884ZM120.707 23L117.323 18.752V23H114.803V9.68H117.323V17.258L120.671 13.028H123.947L119.555 18.032L123.983 23H120.707Z" fill="#5CE1E6"/>
<path d="M48.7071 23.162C47.7471 23.162 46.8831 22.952 46.1151 22.532C45.3471 22.1 44.7411 21.494 44.2971 20.714C43.8651 19.934 43.6491 19.034 43.6491 18.014C43.6491 16.994 43.8711 16.094 44.3151 15.314C44.7711 14.534 45.3891 13.934 46.1691 13.514C46.9491 13.082 47.8191 12.866 48.7791 12.866C49.7391 12.866 50.6091 13.082 51.3891 13.514C52.1691 13.934 52.7811 14.534 53.2251 15.314C53.6811 16.094 53.9091 16.994 53.9091 18.014C53.9091 19.034 53.6751 19.934 53.2071 20.714C52.7511 21.494 52.1271 22.1 51.3351 22.532C50.5551 22.952 49.6791 23.162 48.7071 23.162ZM48.7071 20.966C49.1631 20.966 49.5891 20.858 49.9851 20.642C50.3931 20.414 50.7171 20.078 50.9571 19.634C51.1971 19.19 51.3171 18.65 51.3171 18.014C51.3171 17.066 51.0651 16.34 50.5611 15.836C50.0691 15.32 49.4631 15.062 48.7431 15.062C48.0231 15.062 47.4171 15.32 46.9251 15.836C46.4451 16.34 46.2051 17.066 46.2051 18.014C46.2051 18.962 46.4391 19.694 46.9071 20.21C47.3871 20.714 47.9871 20.966 48.7071 20.966ZM61.3736 12.884C62.1296 12.884 62.8016 13.052 63.3896 13.388C63.9776 13.712 64.4336 14.198 64.7576 14.846C65.0936 15.482 65.2616 16.25 65.2616 17.15V23H62.7416V17.492C62.7416 16.7 62.5436 16.094 62.1476 15.674C61.7516 15.242 61.2116 15.026 60.5276 15.026C59.8316 15.026 59.2796 15.242 58.8716 15.674C58.4756 16.094 58.2776 16.7 58.2776 17.492V23H55.7576V9.68H58.2776V14.27C58.6016 13.838 59.0336 13.502 59.5736 13.262C60.1136 13.01 60.7136 12.884 61.3736 12.884ZM72.086 23.162C71.126 23.162 70.262 22.952 69.494 22.532C68.726 22.1 68.12 21.494 67.676 20.714C67.244 19.934 67.028 19.034 67.028 18.014C67.028 16.994 67.25 16.094 67.694 15.314C68.15 14.534 68.768 13.934 69.548 13.514C70.328 13.082 71.198 12.866 72.158 12.866C73.118 12.866 73.988 13.082 74.768 13.514C75.548 13.934 76.16 14.534 76.604 15.314C77.06 16.094 77.288 16.994 77.288 18.014C77.288 19.034 77.054 19.934 76.586 20.714C76.13 21.494 75.506 22.1 74.714 22.532C73.934 22.952 73.058 23.162 72.086 23.162ZM72.086 20.966C72.542 20.966 72.968 20.858 73.364 20.642C73.772 20.414 74.096 20.078 74.336 19.634C74.576 19.19 74.696 18.65 74.696 18.014C74.696 17.066 74.444 16.34 73.94 15.836C73.448 15.32 72.842 15.062 72.122 15.062C71.402 15.062 70.796 15.32 70.304 15.836C69.824 16.34 69.584 17.066 69.584 18.014C69.584 18.962 69.818 19.694 70.286 20.21C70.766 20.714 71.366 20.966 72.086 20.966Z" fill="white"/>
<path d="M16 0C12.8355 -3.77363e-08 9.74206 0.938383 7.11088 2.69649C4.47969 4.45459 2.42893 6.95345 1.21793 9.87706C0.00692588 12.8007 -0.309928 16.0177 0.307435 19.1214C0.924798 22.2251 2.44865 25.0761 4.68629 27.3137C6.92393 29.5513 9.77485 31.0752 12.8786 31.6926C15.9822 32.3099 19.1993 31.9931 22.1229 30.7821C25.0465 29.5711 27.5454 27.5203 29.3035 24.8891C31.0616 22.2579 32 19.1645 32 16L24 16C24 17.5823 23.5308 19.129 22.6518 20.4446C21.7727 21.7602 20.5233 22.7855 19.0615 23.391C17.5997 23.9965 15.9911 24.155 14.4393 23.8463C12.8874 23.5376 11.462 22.7757 10.3431 21.6569C9.22432 20.538 8.4624 19.1126 8.15372 17.5607C7.84504 16.0089 8.00346 14.4003 8.60896 12.9385C9.21447 11.4767 10.2398 10.2273 11.5554 9.34824C12.871 8.46919 14.4177 8 16 8L16 0Z" fill="white"/>
<path d="M16 0C13.8989 -2.5056e-08 11.8183 0.413852 9.87706 1.21793C7.93586 2.022 6.17203 3.20055 4.68629 4.68629C3.20055 6.17203 2.022 7.93586 1.21793 9.87707C0.413852 11.8183 -3.17265e-07 13.8989 0 16L8 16C8 14.9494 8.20693 13.9091 8.60896 12.9385C9.011 11.9679 9.60028 11.086 10.3431 10.3431C11.086 9.60028 11.9679 9.011 12.9385 8.60896C13.9091 8.20693 14.9494 8 16 8L16 0Z" fill="#5CE1E6"/>
<circle cx="16" cy="16" r="5" fill="#5CE1E6"/>
<path d="M21 16C21 15.3434 20.8707 14.6932 20.6194 14.0866C20.3681 13.48 19.9998 12.9288 19.5355 12.4645C19.0712 12.0002 18.52 11.6319 17.9134 11.3806C17.3068 11.1293 16.6566 11 16 11C15.3434 11 14.6932 11.1293 14.0866 11.3806C13.48 11.6319 12.9288 12.0002 12.4645 12.4645C12.0002 12.9288 11.6319 13.48 11.3806 14.0866C11.1293 14.6932 11 15.3434 11 16L16 16H21Z" fill="white"/>
</svg>
