<svg width="56" height="56" viewBox="0 0 56 56" fill="none" xmlns="http://www.w3.org/2000/svg">
<circle cx="28" cy="28" r="28" fill="white"/>
<path d="M38.8855 20.7701C38.857 20.9519 38.8245 21.1378 38.7879 21.3287C37.5294 27.7791 33.224 30.0074 27.7253 30.0074H24.9256C24.2532 30.0074 23.6865 30.4949 23.5817 31.1571L22.1483 40.2329L21.7424 42.8055C21.7262 42.9075 21.7324 43.0119 21.7605 43.1113C21.7886 43.2107 21.8379 43.3029 21.9051 43.3815C21.9723 43.46 22.0558 43.5231 22.1497 43.5664C22.2437 43.6097 22.3459 43.6322 22.4494 43.6322H27.415C28.0031 43.6322 28.5026 43.2056 28.5952 42.6267L28.644 42.3748L29.5789 36.4516L29.6389 36.1266C29.7305 35.5457 30.231 35.1191 30.8191 35.1191H31.5617C36.3727 35.1191 40.1389 33.1691 41.2396 27.5262C41.6995 25.1689 41.4614 23.2006 40.2447 21.8163C39.859 21.388 39.3985 21.0335 38.8855 20.7701V20.7701Z" fill="#179BD7"/>
<path d="M37.5931 20.3246C37.189 20.2086 36.7779 20.1181 36.3623 20.0536C35.541 19.9283 34.711 19.8683 33.8802 19.8739H26.3582C26.0719 19.8737 25.795 19.9751 25.5775 20.1598C25.3601 20.3444 25.2164 20.6002 25.1724 20.8809L23.5722 30.9365L23.5262 31.2299C23.576 30.9097 23.7397 30.6179 23.9876 30.4071C24.2355 30.1964 24.5513 30.0806 24.8777 30.0808H27.6934C33.2233 30.0808 37.5532 27.8526 38.8188 21.4067C38.8566 21.2159 38.8883 21.0301 38.917 20.8484C38.583 20.6746 38.235 20.529 37.8765 20.4129C37.7825 20.382 37.688 20.3525 37.5931 20.3246V20.3246Z" fill="#222D65"/>
<path d="M25.2473 20.8467C25.2907 20.5649 25.4336 20.3079 25.6502 20.1226C25.8668 19.9373 26.1426 19.8358 26.4275 19.8367H33.9144C34.8013 19.8367 35.6292 19.8948 36.3849 20.0171C36.8962 20.0975 37.4004 20.2178 37.893 20.3769C38.2647 20.5002 38.6099 20.646 38.9287 20.8141C39.3034 18.4221 38.9256 16.7934 37.6333 15.3187C36.2087 13.6951 33.6374 13 30.3471 13H20.7951C20.123 13 19.5497 13.4892 19.4458 14.1547L15.4671 39.3949C15.4486 39.5121 15.4556 39.6319 15.4878 39.7461C15.5199 39.8603 15.5764 39.9662 15.6534 40.0565C15.7303 40.1467 15.8258 40.2193 15.9334 40.269C16.0411 40.3188 16.1582 40.3447 16.2767 40.3448H22.1739L23.6546 30.9428L25.2473 20.8467Z" fill="#253B80"/>
</svg>
